<svg width="14" height="15" viewBox="0 0 14 15" fill="none" xmlns="http://www.w3.org/2000/svg">
<mask id="mask0_272_33" style="mask-type:alpha" maskUnits="userSpaceOnUse" x="0" y="0" width="14" height="15">
<rect y="0.5" width="14" height="14" fill="#D9D9D9"/>
</mask>
<g mask="url(#mask0_272_33)">
<path d="M3.09175 13.0417C2.80008 13.0417 2.55216 12.9396 2.348 12.7354C2.14383 12.5313 2.04175 12.2833 2.04175 11.9917V4.17501C2.04175 3.88334 2.14383 3.63542 2.348 3.43126C2.55216 3.22709 2.80008 3.12501 3.09175 3.12501H3.90841V1.88542H4.798V3.12501H9.21675V1.88542H10.0917V3.12501H10.9084C11.2001 3.12501 11.448 3.22709 11.6522 3.43126C11.8563 3.63542 11.9584 3.88334 11.9584 4.17501V11.9917C11.9584 12.2833 11.8563 12.5313 11.6522 12.7354C11.448 12.9396 11.2001 13.0417 10.9084 13.0417H3.09175ZM3.09175 12.1667H10.9084C10.9473 12.1667 10.9862 12.1472 11.0251 12.1083C11.064 12.0694 11.0834 12.0306 11.0834 11.9917V6.50834H2.91675V11.9917C2.91675 12.0306 2.93619 12.0694 2.97508 12.1083C3.01397 12.1472 3.05286 12.1667 3.09175 12.1667ZM2.91675 5.63334H11.0834V4.17501C11.0834 4.13612 11.064 4.09723 11.0251 4.05834C10.9862 4.01945 10.9473 4.00001 10.9084 4.00001H3.09175C3.05286 4.00001 3.01397 4.01945 2.97508 4.05834C2.93619 4.09723 2.91675 4.13612 2.91675 4.17501V5.63334Z" fill="#B1B3C5"/>
</g>
</svg>
