<svg width="10" height="13" viewBox="0 0 10 13" fill="none" xmlns="http://www.w3.org/2000/svg">
<path d="M4.92621 12.8095C4.15315 12.0756 3.43659 11.271 2.78403 10.4042C1.80474 9.10246 0.641846 7.16379 0.641846 5.31639C0.641422 4.37292 0.892486 3.4505 1.36327 2.66589C1.83405 1.88128 2.50338 1.26974 3.28656 0.908667C4.06974 0.547593 4.93156 0.453217 5.76295 0.63748C6.59434 0.821744 7.35793 1.27636 7.95708 1.94381C8.35599 2.38581 8.67217 2.91147 8.88733 3.49037C9.10249 4.06927 9.21235 4.68992 9.21056 5.31639C9.21056 7.16379 8.04767 9.10246 7.06838 10.4042C6.41582 11.271 5.69926 12.0756 4.92621 12.8095ZM4.92621 3.27282C4.43923 3.27282 3.97219 3.48812 3.62785 3.87137C3.2835 4.25461 3.09005 4.7744 3.09005 5.31639C3.09005 5.85838 3.2835 6.37818 3.62785 6.76142C3.97219 7.14467 4.43923 7.35997 4.92621 7.35997C5.41318 7.35997 5.88022 7.14467 6.22456 6.76142C6.56891 6.37818 6.76236 5.85838 6.76236 5.31639C6.76236 4.7744 6.56891 4.25461 6.22456 3.87137C5.88022 3.48812 5.41318 3.27282 4.92621 3.27282Z" fill="#1C9FE2"/>
</svg>
