<svg width="19" height="20" viewBox="0 0 19 20" fill="none" xmlns="http://www.w3.org/2000/svg">
<g id="Star">
<path id="Vector" d="M8.27942 2.55558C8.66257 1.40418 10.3267 1.40418 10.7086 2.55558L12.0752 6.67108C12.1587 6.92172 12.321 7.14011 12.5389 7.29504C12.7568 7.44996 13.0192 7.53349 13.2885 7.53369H17.7101C18.9477 7.53369 19.4611 9.08388 18.4611 9.79646L14.885 12.3393C14.6666 12.4943 14.504 12.7131 14.4205 12.9642C14.337 13.2153 14.3369 13.4858 14.4201 13.7369L15.7867 17.8524C16.1698 19.0038 14.8224 19.9627 13.8198 19.2501L10.2437 16.7073C10.0256 16.5523 9.76294 16.4688 9.49338 16.4688C9.22382 16.4688 8.96117 16.5523 8.74303 16.7073L5.16692 19.2501C4.16561 19.9627 2.81946 19.0038 3.20134 17.8524L4.56793 13.7369C4.65117 13.4858 4.65102 13.2153 4.5675 12.9642C4.48398 12.7131 4.32139 12.4943 4.10303 12.3393L0.528201 9.79771C-0.471832 9.08513 0.0428724 7.53493 1.27918 7.53493H5.69951C5.96905 7.535 6.23171 7.4516 6.44988 7.29665C6.66805 7.14171 6.83055 6.92317 6.91411 6.67233L8.28069 2.55683L8.27942 2.55558Z" fill="#FFCA00"/>
</g>
</svg>
